<?xml version="1.0" encoding="UTF-8" standalone="no"?>
<!-- Created with Inkscape (http://www.inkscape.org/) -->
<svg
   xmlns:dc="http://purl.org/dc/elements/1.1/"
   xmlns:cc="http://creativecommons.org/ns#"
   xmlns:rdf="http://www.w3.org/1999/02/22-rdf-syntax-ns#"
   xmlns:svg="http://www.w3.org/2000/svg"
   xmlns="http://www.w3.org/2000/svg"
   xmlns:sodipodi="http://sodipodi.sourceforge.net/DTD/sodipodi-0.dtd"
   xmlns:inkscape="http://www.inkscape.org/namespaces/inkscape"
   width="495"
   height="608"
   id="svg2"
   sodipodi:version="0.32"
   inkscape:version="0.46"
   sodipodi:docname="tip.svg"
   inkscape:output_extension="org.inkscape.output.svg.inkscape"
   version="1.0">
  <defs
     id="defs4">
    <inkscape:perspective
       sodipodi:type="inkscape:persp3d"
       inkscape:vp_x="0 : 526.18109 : 1"
       inkscape:vp_y="0 : 1000 : 0"
       inkscape:vp_z="744.09448 : 526.18109 : 1"
       inkscape:persp3d-origin="372.04724 : 350.78739 : 1"
       id="perspective10" />
    <inkscape:perspective
       id="perspective2390"
       inkscape:persp3d-origin="372.04724 : 350.78739 : 1"
       inkscape:vp_z="744.09448 : 526.18109 : 1"
       inkscape:vp_y="0 : 1000 : 0"
       inkscape:vp_x="0 : 526.18109 : 1"
       sodipodi:type="inkscape:persp3d" />
    <inkscape:perspective
       id="perspective2558"
       inkscape:persp3d-origin="372.04724 : 350.78739 : 1"
       inkscape:vp_z="744.09448 : 526.18109 : 1"
       inkscape:vp_y="0 : 1000 : 0"
       inkscape:vp_x="0 : 526.18109 : 1"
       sodipodi:type="inkscape:persp3d" />
  </defs>
  <sodipodi:namedview
     id="base"
     pagecolor="#ffffff"
     bordercolor="#666666"
     borderopacity="1.0"
     inkscape:pageopacity="0.0"
     inkscape:pageshadow="2"
     inkscape:zoom="0.35"
     inkscape:cx="350"
     inkscape:cy="520"
     inkscape:document-units="px"
     inkscape:current-layer="layer1"
     showgrid="false"
     inkscape:window-width="1280"
     inkscape:window-height="774"
     inkscape:window-x="-4"
     inkscape:window-y="-4" />
  <metadata
     id="metadata7">
    <rdf:RDF>
      <cc:Work
         rdf:about="">
        <dc:format>image/svg+xml</dc:format>
        <dc:type
           rdf:resource="http://purl.org/dc/dcmitype/StillImage" />
      </cc:Work>
    </rdf:RDF>
  </metadata>
  <g
     inkscape:label="Ebene 1"
     inkscape:groupmode="layer"
     id="layer1"
     transform="translate(-199.28571,-40.719331)">
    <g
       id="g2564"
       transform="translate(120,-45.714286)">
      <path
         style="fill:#fefefe"
         d="M 79.285713,390.43362 L 79.285713,86.433617 L 326.78571,86.433617 L 574.28571,86.433617 L 574.28571,390.43362 L 574.28571,694.43362 L 326.78571,694.43362 L 79.285713,694.43362 L 79.285713,390.43362 z"
         id="path2580" />
      <path
         style="fill:#cccccc"
         d="M 317.78571,685.33093 C 296.82011,683.05035 271.71516,676.49019 253.28571,668.4765 C 240.89476,663.08853 199.95015,641.57105 190.18078,635.31318 C 122.17236,591.74972 82.160538,512.71646 87.404343,432.30427 C 91.051111,376.38215 113.40835,326.63317 152.54727,287.3492 C 188.65591,251.10674 233.40039,229.19585 285.28571,222.34863 C 297.13849,220.78443 326.98044,220.77471 338.28571,222.33136 C 366.83168,226.26192 392.17278,234.05042 415.33001,246.01066 C 420.23247,248.54268 424.68255,250.46117 425.21909,250.27398 C 426.06208,249.97986 446.46526,218.70367 449.4393,213.14664 C 450.27774,211.57999 449.37119,206.67869 445.23799,190.43212 L 439.96755,169.71531 L 458.70574,133.20894 C 479.83498,92.044253 480.73485,90.433617 482.60446,90.433617 C 483.41525,90.433617 488.34302,100.69734 494.96743,116.18362 L 505.98225,141.93362 L 535.37094,142.43362 C 561.50829,142.8783 564.79433,143.11416 565.07325,144.56553 C 565.33142,145.90887 513.87403,209.93701 505.89473,218.20103 C 503.89614,220.27093 502.09737,220.5958 485.24557,221.93048 C 475.09265,222.7346 465.61098,223.40176 464.17519,223.41307 C 461.89035,223.43106 460.175,225.62261 450.42519,240.98031 C 444.29848,250.63098 439.28571,258.90192 439.28571,259.36016 C 439.28571,259.8184 441.87321,262.1323 445.03571,264.50215 C 459.28769,275.182 491.71967,303.14124 500.65675,312.4524 C 532.90545,346.05096 553.15054,388.04068 559.92324,435.37524 C 562.14746,450.92034 562.12543,479.06346 559.87663,494.93362 C 557.91301,508.79116 553.77608,526.02787 549.3163,538.93362 C 545.20894,550.81956 532.79822,575.79581 525.7135,586.43362 C 490.50935,639.29321 436.04846,674.24201 373.78571,683.92915 C 361.40827,685.85489 329.86193,686.64455 317.78571,685.33093 z M 346.65499,615.48475 C 381.64824,607.89366 412.04692,591.02949 436.39738,565.69867 C 459.80234,541.35141 474.01084,514.40897 481.48264,480.20706 C 483.46072,471.15244 483.72699,467.0863 483.72699,445.93362 C 483.72699,424.70032 483.46447,420.72319 481.44977,411.43362 C 473.82804,376.29068 456.33825,344.82216 431.13078,320.8971 C 423.30425,313.46874 411.9796,304.40581 410.61167,304.476 C 409.81791,304.51672 392.58124,331.31709 391.78526,333.74816 C 391.57179,334.40016 394.33561,337.18362 397.9271,339.93362 C 421.18176,357.73972 440.20557,389.52648 446.40417,420.93362 C 448.53303,431.72015 448.23584,462.69095 445.90039,473.43362 C 433.61209,529.95769 389.61496,571.64454 332.2976,581.07114 C 320.73262,582.97316 295.632,582.38055 284.53747,579.94356 C 222.70211,566.361 178.71638,514.88229 175.58722,452.43362 C 174.31019,426.94803 180.5808,400.44976 192.98043,378.93362 C 213.09128,344.03679 245.51655,320.50155 285.51753,311.76738 C 298.48855,308.93517 326.44975,309.18672 340.17212,312.25907 C 351.33737,314.7589 363.11859,318.79503 371.19228,322.88628 C 373.9571,324.28731 376.64521,325.43362 377.16585,325.43362 C 378.19789,325.43362 395.29061,299.13089 395.98558,296.47332 C 396.94006,292.82337 365.58625,280.38722 344.78841,276.16651 C 335.28568,274.23802 330.71835,273.93895 311.28571,273.9727 C 291.75035,274.00663 287.40221,274.31055 278.28571,276.27928 C 219.14553,289.05074 172.92484,327.78213 150.94765,382.9843 C 136.45875,419.37741 135.34076,462.59164 147.90913,500.43362 C 167.387,559.07932 217.40482,603.45895 277.36443,615.29622 C 292.69372,618.32254 292.02929,618.27625 315.28571,617.93821 C 332.66395,617.6856 338.67775,617.21525 346.65499,615.48475 z M 334.28571,527.44902 C 369.03478,517.67008 393.82737,487.08328 395.98149,451.33448 C 397.12478,432.36104 392.44435,414.78192 382.15291,399.39606 C 376.31453,390.66758 365.00186,379.02824 363.004,379.69419 C 362.04526,380.01377 344.85633,406.1294 343.58422,409.19922 C 343.29576,409.89531 344.94906,412.51448 347.25821,415.01961 C 356.06735,424.57641 360.64663,440.00497 358.50679,452.9185 C 354.27072,478.48235 329.56379,496.80358 305.00514,492.59224 C 281.80549,488.61394 265.32624,469.78454 265.04531,446.93362 C 264.6674,416.19563 291.78176,393.66916 321.64031,399.91478 C 325.96034,400.81841 329.62584,401.41732 329.78587,401.24569 C 330.07626,400.93423 347.25671,374.01882 348.63125,371.72196 C 349.63913,370.03778 343.36632,367.00795 333.14407,364.24152 C 326.30496,362.39065 322.33189,361.99232 311.28571,362.05001 C 299.603,362.11103 296.57418,362.48606 288.78571,364.83597 C 259.66704,373.62156 237.83772,395.99451 230.14835,424.93362 C 227.13988,436.25609 227.14994,455.68226 230.1701,466.93362 C 236.70348,491.2732 252.52812,510.58782 274.94525,521.58351 C 288.89229,528.42459 299.03534,530.56605 314.78571,529.99483 C 322.7921,529.70447 329.28172,528.85722 334.28571,527.44902 z M 320.61116,453.43362 C 328.64878,447.65862 335.12618,442.39929 335.00536,441.74621 C 334.7754,440.50305 309.16194,421.22405 308.55141,421.83458 C 308.35842,422.02758 307.33017,430.00381 306.26642,439.55955 C 305.20267,449.11529 304.06308,458.88737 303.734,461.27529 C 303.01706,466.47767 301.43055,467.21481 320.61116,453.43362 z M 151.17261,215.43362 C 143.29112,203.33362 136.37982,193.43555 135.81417,193.4379 C 135.24852,193.44026 132.76071,194.78833 130.28571,196.43362 C 127.81071,198.07891 125.00386,199.42698 124.04826,199.42934 C 122.09472,199.43415 117.28571,192.46363 117.28571,189.62722 C 117.28571,188.3323 122.66874,184.29549 135.31426,176.10735 C 145.22996,169.68679 154.1872,164.43362 155.21923,164.43362 C 156.99857,164.43362 162.28571,171.85416 162.28571,174.35147 C 162.28571,174.93542 159.81071,177.05649 156.78571,179.06498 C 153.76071,181.07347 151.28571,183.0758 151.28571,183.51461 C 151.28571,183.95342 157.58571,193.93143 165.28571,205.68796 C 172.98571,217.44449 179.28571,227.80979 179.28571,228.72198 C 179.28571,230.57481 169.73699,237.43362 167.1575,237.43362 C 166.10201,237.43362 160.31217,229.46508 151.17261,215.43362 z M 191.41164,214.68309 C 181.36716,194.78507 165.35938,160.12344 165.84871,159.33168 C 166.899,157.63229 178.14893,152.4439 179.58693,152.99571 C 180.88532,153.49395 209.28571,211.30274 209.28571,213.44736 C 209.28571,214.58237 198.01489,220.43362 195.82862,220.43362 C 194.98853,220.43362 193.02227,217.87372 191.41164,214.68309 z M 214.86994,209.56991 C 213.64517,207.58819 195.29819,148.7544 195.29222,146.78947 C 195.28654,144.91794 196.90679,144.13508 208.03571,140.63221 C 224.55068,135.43406 226.34525,135.10329 231.09428,136.38207 C 238.88849,138.48083 245.51648,149.50289 245.51648,160.36558 C 245.51648,169.14183 241.1955,174.25745 230.66741,177.94545 C 222.71749,180.73032 222.89165,179.93427 227.34802,193.11794 C 231.56019,205.5792 231.50476,205.83833 224.09154,208.34182 C 217.27098,210.64516 215.66654,210.85883 214.86994,209.56991 z M 223.78224,165.99952 C 227.86695,164.29281 228.98945,161.09599 227.3007,155.97905 C 225.75726,151.30238 223.23128,149.96645 218.73674,151.44978 C 214.82136,152.74197 214.74772,153.06545 216.8052,159.93362 C 219.42285,168.67169 218.76196,168.09712 223.78224,165.99952 z"
         id="path2578" />
      <path
         style="fill:#b0b0b0"
         d="M 290.78571,670.37625 C 262.72585,667.4581 242.64623,661.7186 217.78571,649.51015 C 190.78295,636.24969 172.46841,623.49264 153.78983,604.93362 C 96.829633,548.33803 74.691083,465.89013 95.398403,387.47357 C 101.23371,365.37584 111.93525,341.69959 124.79612,322.43362 C 187.83772,227.99537 308.54836,195.15857 410.63589,244.6769 C 425.08001,251.68313 425.52597,251.82613 426.94508,249.90686 C 427.74753,248.82158 433.574,239.75636 439.89279,229.76192 L 451.3815,211.59023 L 446.3336,191.71895 C 443.55726,180.78975 441.31964,170.96702 441.36111,169.89065 C 441.49001,166.54532 480.66118,91.933617 482.28859,91.933617 C 483.26275,91.933617 487.33395,100.25523 494.27477,116.43362 C 500.05579,129.90862 505.14977,141.49612 505.59473,142.18362 C 506.21137,143.13638 513.31341,143.43362 535.46136,143.43362 C 563.57035,143.43362 564.50267,143.49597 564.01949,145.34364 C 563.74478,146.39415 550.16434,163.45932 533.84074,183.26623 C 506.13288,216.88672 503.91651,219.31506 500.47359,219.82455 C 498.44526,220.1247 489.13571,220.88707 479.78571,221.5187 C 470.43571,222.15034 462.24183,222.95956 461.57708,223.31698 C 460.22337,224.04482 438.28571,258.0939 438.28571,259.46711 C 438.28571,259.94926 441.99821,263.16747 446.53571,266.6187 C 460.42015,277.17921 477.52321,292.72324 484.40459,301.03564 C 511.63568,333.92955 528.02924,370.21959 534.95307,412.93362 C 537.63547,429.48171 537.40466,464.56134 534.50238,481.43362 C 525.87025,531.61608 504.05001,573.20103 468.09411,607.99431 C 433.9247,641.05888 392.15397,661.70323 344.78571,668.93705 C 332.35207,670.83584 302.78283,671.62392 290.78571,670.37625 z M 336.00719,617.94387 C 362.61197,614.16168 386.39538,604.94325 409.88124,589.31037 C 424.91578,579.30293 445.15651,559.06143 455.16589,544.02402 C 468.60364,523.83603 477.29322,503.26467 482.44959,479.43362 C 484.44193,470.22568 484.72149,466.1034 484.72149,445.93362 C 484.72149,425.71975 484.44539,421.66672 482.44218,412.47514 C 475.09274,378.75269 460.2127,350.12413 437.83208,326.6472 C 429.10534,317.49298 412.79099,303.50594 410.78408,303.4577 C 410.23318,303.44445 405.31228,310.46617 399.84874,319.06151 C 390.3592,333.99062 390.00157,334.75189 391.85037,336.08696 C 419.80464,356.27345 439.85256,388.41005 445.67038,422.35984 C 446.63718,428.00158 447.28571,437.46607 447.28571,445.93362 C 447.28571,477.11375 438.69412,503.10961 420.28664,527.62556 C 401.47298,552.68248 376.34518,569.43086 345.28571,577.61577 C 335.30635,580.24556 331.53781,580.7114 316.78571,581.13875 C 296.76411,581.71874 285.40122,580.22793 269.6368,574.95282 C 213.31203,556.10538 176.2975,504.94167 176.2975,445.93362 C 176.2975,409.98081 189.39664,377.7118 214.49015,351.84809 C 233.91167,331.83047 256.69962,319.04349 283.88452,312.90892 C 295.16339,310.36372 321.003,309.83298 333.38538,311.89218 C 345.91453,313.97579 360.32622,318.43889 369.64212,323.1204 C 373.41314,325.01544 377.03157,326.36138 377.68308,326.11138 C 379.13531,325.5541 397.28571,297.24299 397.28571,295.53507 C 397.28571,293.79811 378.71075,285.14466 366.15053,281.03024 C 343.45519,273.5958 315.63219,270.70942 292.5231,273.39209 C 270.73981,275.92085 244.02449,284.6153 226.04154,295.02839 C 192.58532,314.40133 165.04698,345.72596 151.39903,379.93362 C 143.00603,400.9701 139.46728,417.41484 138.58945,439.46032 C 137.1591,475.3819 146.89214,510.81874 166.32265,540.43362 C 195.18929,584.43049 239.65646,611.96859 292.78571,618.75098 C 300.58457,619.74657 326.76563,619.25767 336.00719,617.94387 z M 334.59223,527.96165 C 363.04178,519.71729 384.03592,499.43796 393.11275,471.43362 C 401.37371,445.94647 396.90753,418.65594 380.74541,395.86319 C 375.83648,388.94032 364.63588,378.15612 362.92762,378.70778 C 361.92669,379.03103 343.99315,405.91788 342.60767,409.17246 C 342.31762,409.85382 344.13114,412.69232 346.63772,415.48025 C 354.30765,424.01105 358.23682,434.32706 358.23682,445.93362 C 358.23682,458.82786 353.92862,468.94259 344.36165,478.50956 C 337.30548,485.56573 330.36672,489.45125 321.48649,491.31903 C 290.07328,497.92619 261.1185,470.51227 266.1957,438.9706 C 270.25406,413.75835 294.24188,396.0937 318.62863,400.35895 C 331.02166,402.52649 329.18774,403.70603 340.27941,386.43362 C 350.17072,371.03045 350.21998,370.92278 348.16575,369.19757 C 342.42858,364.37933 319.03906,359.79445 305.92469,360.91735 C 260.57036,364.80075 226.73318,401.44417 226.95746,446.43362 C 227.16477,488.02031 255.93558,522.05134 297.62728,530.0241 C 308.01475,532.01051 323.62623,531.13947 334.59223,527.96165 z M 320.61568,454.27645 C 329.22328,448.03789 336.15783,442.39211 336.02579,441.73027 C 335.77167,440.45652 309.52998,420.43362 308.11475,420.43362 C 307.65878,420.43362 307.28367,421.22112 307.28118,422.18362 C 307.27652,423.98673 303.81611,454.51428 302.73134,462.32209 C 302.2387,465.86796 302.39465,466.60579 303.54356,466.16492 C 304.32562,465.86481 312.00807,460.515 320.61568,454.27645 z M 151.42141,214.43362 C 143.544,202.33362 136.69765,192.43362 136.2073,192.43362 C 135.71695,192.43362 133.06593,193.81795 130.31615,195.50991 C 127.56636,197.20187 124.59155,198.43937 123.70546,198.25991 C 121.65884,197.84541 117.13403,190.27376 118.07711,188.84164 C 119.41381,186.81179 153.10182,165.43361 154.94427,165.446 C 156.8891,165.45907 161.28571,171.34254 161.28571,173.93201 C 161.28571,174.77156 158.77632,177.0637 155.70928,179.02566 C 152.19382,181.27447 150.3262,183.09674 150.65601,183.95622 C 150.94376,184.70606 157.27815,194.71862 164.73245,206.20633 C 172.18674,217.69404 178.28571,227.79779 178.28571,228.6591 C 178.28571,230.33324 169.56934,236.43362 167.1773,236.43362 C 166.38898,236.43362 159.29883,226.53362 151.42141,214.43362 z M 189.99821,210.18362 C 187.57011,205.09612 181.2121,191.82568 175.86931,180.69376 C 170.52652,169.56184 166.46713,159.9491 166.84844,159.33212 C 167.22976,158.71513 170.03241,157.10884 173.07655,155.76257 C 178.40372,153.40665 178.67384,153.3827 180.27686,155.12422 C 181.19289,156.11939 187.90918,169.43984 195.20195,184.72522 C 206.04428,207.45035 208.23912,212.78483 207.24152,213.98687 C 205.89956,215.60383 197.79995,219.43362 195.72221,219.43362 C 195.00211,219.43362 192.42632,215.27112 189.99821,210.18362 z M 215.59022,208.26982 C 213.8458,206.11847 196.13922,149.46886 196.47764,147.12188 C 196.73606,145.32965 198.88073,144.30882 209.78571,140.78743 C 223.95407,136.21225 227.68428,135.72389 232.56783,137.80474 C 241.47371,141.59949 247.49134,156.88074 243.75602,166.21621 C 241.53771,171.76032 237.79803,174.76729 229.81907,177.42252 C 225.48376,178.86521 223.28571,180.12321 223.28571,181.16172 C 223.28571,182.02249 224.63571,186.94119 226.28571,192.09215 C 230.17178,204.22367 230.13634,205.18026 225.73255,207.02028 C 220.16235,209.34766 216.80007,209.76189 215.59022,208.26982 z M 228.16026,162.94951 C 229.36954,160.47919 229.30609,159.58802 227.63252,155.5376 C 225.86678,151.2641 225.44509,150.91248 221.75797,150.63922 C 219.45842,150.46879 216.96685,150.94415 215.84113,151.76808 C 214.0553,153.07515 214.00252,153.5482 215.19462,157.56248 C 215.90856,159.96661 217.09246,163.38248 217.82551,165.15332 C 219.15533,168.36576 219.16694,168.37007 222.97202,167.06523 C 225.40235,166.23183 227.28431,164.73891 228.16026,162.94951 z"
         id="path2576" />
      <path
         style="fill:#909090"
         d="M 292.78571,669.81917 C 273.69418,667.83146 249.85806,662.49464 235.35872,656.96148 C 224.53283,652.83017 204.49857,642.82785 193.96917,636.2973 C 139.30987,602.39653 101.82514,546.15323 90.747153,481.41968 C 88.192187,466.4899 87.67216,434.72964 89.719436,418.65269 C 102.80803,315.86999 183.0723,236.16228 286.25948,223.47547 C 298.28786,221.99658 327.90338,222.21987 340.28571,223.8828 C 365.67586,227.29266 386.6306,233.62766 410.21346,245.02322 C 418.69873,249.12341 425.95194,252.1306 426.33172,251.70587 C 429.09091,248.62004 451.28571,212.31614 451.28571,210.88878 C 451.28571,209.89789 449.00432,200.25048 446.21595,189.4501 L 441.1462,169.81304 L 460.96595,131.37333 C 473.31583,107.42119 481.33532,92.933617 482.24398,92.933617 C 483.19642,92.933617 487.38165,101.51243 494.30997,117.66628 C 500.14422,131.26924 505.22969,142.71093 505.61101,143.09225 C 505.99232,143.47357 519.01263,143.81887 534.54501,143.85958 C 560.51826,143.92767 562.78571,144.07122 562.78571,145.64743 C 562.78571,147.12802 507.73865,215.15297 504.09039,218.18076 C 503.35342,218.79239 493.54131,220.03118 482.28571,220.93362 C 471.03011,221.83606 461.27521,223.02737 460.60816,223.58097 C 459.94111,224.13457 454.35451,232.51845 448.19349,242.21181 L 436.99164,259.83611 L 440.35789,262.38486 C 471.81165,286.20004 488.86612,304.52695 505.39458,332.27397 C 566.16691,434.29498 534.80007,568.20623 434.79364,633.68344 C 407.83432,651.33451 377.72031,662.92986 345.78571,667.95581 C 336.17957,669.46764 301.21597,670.69689 292.78571,669.81917 z M 325.60435,619.42274 C 361.5111,616.44771 393.49431,603.69067 421.47675,581.18242 C 440.82378,565.62024 455.90764,546.76777 467.2815,523.93362 C 475.112,508.21311 479.20368,496.67734 482.21401,481.83401 C 493.20364,427.64642 479.32808,374.03437 443.41895,331.93861 C 432.29506,318.89823 412.99579,302.55661 410.06265,303.69423 C 408.70325,304.22147 390.28571,332.74941 390.28571,334.32782 C 390.28571,334.8413 393.16975,337.55632 396.69469,340.3612 C 416.45856,356.08778 433.1999,380.4398 440.74271,404.43362 C 445.10503,418.31023 446.45155,426.15203 447.01014,440.93362 C 448.51928,480.86928 433.56965,517.20345 404.29985,544.73838 C 356.48391,589.72018 283.13055,593.64368 230.54573,554.03208 C 192.82177,525.61502 171.99694,478.12231 177.2182,432.41432 C 184.1535,371.70118 227.17738,324.78238 286.94644,312.75245 C 300.54723,310.01497 325.58323,310.27261 339.20449,313.29023 C 351.06161,315.91703 360.2362,319.05028 370.5656,324.00052 C 376.2004,326.70092 377.95778,327.16389 378.84316,326.18119 C 380.35383,324.50447 397.19982,297.82103 397.90053,295.995 C 398.62975,294.09469 381.59533,285.76523 367.28571,281.02502 C 275.15797,250.50674 176.39174,300.30561 146.27723,392.45958 C 139.92811,411.88864 138.86406,419.56405 138.86406,445.93362 C 138.86406,467.12321 139.12957,471.16317 141.13147,480.43362 C 157.59726,556.68407 220.01711,612.54973 296.30975,619.31793 C 309.76162,620.5113 312.35416,620.52057 325.60435,619.42274 z M 333.78571,528.9557 C 342.82588,526.4905 358.99452,518.20985 366.08218,512.41532 C 378.97209,501.87713 389.6969,485.43228 394.48405,468.86541 C 397.78871,457.42897 397.80884,434.50455 394.52419,423.14816 C 390.02185,407.58169 378.95037,390.08872 367.88006,381.05031 C 363.87577,377.781 362.9195,377.38572 361.83194,378.55031 C 360.12932,380.37352 343.57754,406.50956 342.73491,408.7054 C 342.29551,409.85046 343.36869,411.97551 346.00075,415.17226 C 354.46816,425.45627 357.70333,433.95954 357.70427,445.93362 C 357.70699,480.19452 321.74397,502.36799 291.24229,486.91162 C 284.90607,483.70081 276.01065,475.52677 272.69423,469.86773 C 264.19519,455.36521 264.14764,436.58316 272.57356,422.20541 C 276.38324,415.70469 285.42043,407.73438 293.02718,404.16644 C 298.81281,401.4527 301.17149,400.93983 309.41244,400.60363 C 316.00435,400.33471 320.62609,400.6761 324.07303,401.68654 C 326.84165,402.49814 329.50509,402.88575 329.99179,402.5479 C 332.02674,401.13529 350.3697,371.09487 349.91725,369.91581 C 349.38236,368.5219 341.11585,365.17934 332.30046,362.79247 C 324.49156,360.67811 308.19555,359.96758 299.28571,361.35298 C 281.65257,364.09478 266.11404,371.79972 253.05346,384.27773 C 234.38371,402.1147 225.12388,425.49429 226.6534,450.93362 C 227.96896,472.81405 236.3276,491.22937 251.96592,506.70081 C 264.62473,519.22453 277.54032,526.16326 295.28571,529.97376 C 303.7406,531.7893 325.50511,531.21378 333.78571,528.9557 z M 321.28571,454.24236 C 329.81071,447.99732 336.78571,442.37024 336.78571,441.73774 C 336.78571,440.46924 310.11899,420.43362 308.43067,420.43362 C 307.12915,420.43362 306.80402,422.38077 304.29456,445.20366 C 301.79198,467.96407 301.79431,467.77173 304.03571,466.55048 C 304.99821,466.02606 312.76071,460.4874 321.28571,454.24236 z M 156.96692,222.18362 C 151.85629,214.34612 145.29397,204.22112 142.384,199.68362 C 139.47402,195.14612 136.79296,191.43362 136.42607,191.43362 C 136.05919,191.43362 133.42028,193.00862 130.56181,194.93362 C 127.70335,196.85862 124.91308,198.43362 124.36121,198.43362 C 123.17592,198.43362 118.28571,191.48934 118.28571,189.80617 C 118.28571,188.63035 151.45071,166.47345 154.35663,165.70788 C 155.34925,165.44637 156.93671,166.81894 158.66885,169.43639 C 161.82621,174.20747 161.58444,174.79793 154.69015,179.15338 C 152.26968,180.68251 150.28848,182.58138 150.2875,183.37309 C 150.28652,184.1648 156.41239,194.18739 163.90056,205.6455 C 171.38872,217.10361 177.57622,227.23436 177.65056,228.15828 C 177.77177,229.66487 169.08786,236.43362 167.03378,236.43362 C 166.60764,236.43362 162.07755,230.02112 156.96692,222.18362 z M 194.56552,218.18362 C 191.7545,214.54273 167.15282,161.22233 167.66641,159.88392 C 168.36355,158.06721 176.68129,154.15875 178.87228,154.61834 C 180.48344,154.95631 207.24937,209.69254 207.27227,212.69623 C 207.28131,213.88148 205.44336,215.27361 201.66128,216.94623 C 195.0607,219.86532 195.76859,219.74187 194.56552,218.18362 z M 216.42871,208.522 C 215.79923,208.13296 210.95659,194.18543 205.6673,177.5275 C 197.58805,152.08296 196.26908,147.03403 197.41806,145.94995 C 198.68738,144.75232 215.2849,139.22646 223.28571,137.33775 C 234.5796,134.67166 245.27623,147.47574 244.05524,162.19929 C 243.64778,167.11269 243.13651,168.18271 239.63617,171.44779 C 237.10874,173.80535 233.25733,175.94556 228.98179,177.36837 C 225.29895,178.59394 222.28829,179.89749 222.29145,180.26515 C 222.2946,180.63281 223.86216,185.88362 225.77491,191.93362 C 227.68767,197.98362 229.26009,203.44153 229.26918,204.0623 C 229.29518,205.8379 218.27741,209.66456 216.42871,208.522 z M 224.1576,167.32843 C 227.76492,166.07091 229.28737,163.81917 229.28197,159.74936 C 229.27689,155.92332 225.87644,150.61998 222.95875,149.88769 C 219.95233,149.13313 212.90006,151.96832 213.53031,153.67817 C 213.78482,154.36866 214.9956,157.97112 216.22092,161.68362 C 218.55887,168.7672 219.04287,169.11144 224.1576,167.32843 z"
         id="path2574" />
      <path
         style="fill:#707070"
         d="M 278.78571,667.47024 C 253.74661,663.51579 234.91924,657.40486 212.23134,645.86826 C 187.79719,633.4437 169.61116,619.92754 150.28571,599.82921 C 95.108023,542.44482 75.173945,459.97432 97.705806,382.29766 C 114.98872,322.71628 159.32988,271.0994 216.55431,243.9479 C 247.04002,229.48322 276.26484,223.05405 311.78571,222.99794 C 349.59281,222.93822 380.19141,230.165 413.66329,247.0594 C 419.64596,250.07906 425.08671,252.34022 425.75386,252.08422 C 426.421,251.82821 432.69213,242.60347 439.6897,231.5848 L 452.41255,211.55086 L 447.34913,192.08058 C 444.56425,181.37193 442.28571,171.66266 442.28571,170.50443 C 442.28571,168.15908 480.6578,93.142919 482.1041,92.660821 C 482.60729,92.493089 487.82829,103.55763 493.70632,117.2487 C 499.58434,130.93976 504.90935,142.65726 505.53967,143.28758 C 506.34706,144.09497 515.04822,144.43362 534.98571,144.43362 C 550.84294,144.43362 563.28571,144.82473 563.28571,145.32316 C 563.28571,146.71943 505.37621,216.80297 503.2096,218.02877 C 502.14498,218.63111 492.50827,219.7016 481.7947,220.40765 C 471.04937,221.11579 461.64917,222.19405 460.82942,222.8125 C 458.8879,224.27725 437.27688,258.23567 437.31486,259.76205 C 437.33089,260.40642 440.13311,262.95862 443.54201,265.43362 C 473.40606,287.11612 495.83993,313.48032 512.0412,345.93362 C 528.09105,378.08358 535.55597,409.84051 535.54764,445.93362 C 535.54022,478.04417 530.04883,505.10383 517.60839,534.33194 C 491.67087,595.27067 438.04177,642.5641 373.93545,661.03153 C 351.94866,667.36538 342.47635,668.65714 315.28571,669.02971 C 294.93841,669.30851 288.75173,669.04419 278.78571,667.47024 z M 344.66428,617.48426 C 399.80868,606.472 445.82573,570.7272 469.64494,520.40266 C 482.11578,494.05463 486.97451,470.12844 485.98592,439.93362 C 484.45998,393.32602 466.50937,353.09182 432.64453,320.37515 C 423.56321,311.60173 412.21719,302.43362 410.44093,302.43362 C 409.89275,302.43362 404.81486,309.70294 399.15673,318.58766 L 388.86921,334.7417 L 392.28128,337.33766 C 420.11387,358.51317 438.95125,388.99595 444.89199,422.47272 C 447.11527,435.00113 447.11228,456.88202 444.88558,469.43362 C 434.97253,525.31204 390.87318,569.18905 334.78571,578.97838 C 323.03541,581.02925 300.49081,581.03239 289.02688,578.98476 C 261.74448,574.11172 238.36468,562.1328 218.20822,542.69997 C 198.66043,523.85396 185.51405,500.22979 179.66288,473.43362 C 178.21819,466.81747 177.80684,460.72266 177.80684,445.93362 C 177.80684,424.98765 179.00023,417.07379 184.51731,401.43362 C 200.90456,354.97808 242.10525,320.46813 290.29201,312.83609 C 305.51237,310.42542 330.14912,311.31725 343.78571,314.77251 C 353.71479,317.28836 369.75529,323.2481 374.00053,325.99862 C 375.21868,326.78787 376.79368,327.42821 377.50053,327.42159 C 379.39119,327.40389 398.60123,296.69823 397.88665,294.83606 C 397.19047,293.02184 379.98596,284.80036 369.2383,281.14593 C 348.13212,273.96939 335.0018,271.91735 310.78571,272.01081 C 293.19428,272.0787 289.27332,272.40591 278.22735,274.72779 C 233.64591,284.0989 196.01453,308.4516 169.74073,344.93362 C 160.92688,357.17193 149.17819,381.06937 144.91342,395.43362 C 131.95264,439.0871 135.7814,483.51267 155.97927,523.83229 C 181.7778,575.3321 229.95951,610.12173 287.72395,618.95861 C 301.30318,621.03597 330.68907,620.27509 344.66428,617.48426 z M 332.92395,529.40539 C 348.30094,525.48656 362.15773,517.39547 373.39881,505.7718 C 381.21069,497.69404 385.15632,492.02558 389.82189,482.17776 C 395.62976,469.91881 397.58312,460.79681 397.58312,445.93362 C 397.58312,435.73465 397.11673,431.20991 395.41852,424.93362 C 392.72708,414.98655 387.57241,403.98484 381.87261,396.02237 C 376.84967,389.00546 365.12874,377.43362 363.04436,377.43362 C 361.94054,377.43362 342.95938,405.70952 341.44068,409.61623 C 341.25092,410.10438 342.87016,412.42888 345.039,414.78179 C 353.13255,423.56226 357.28571,434.12662 357.28571,445.93362 C 357.28571,486.31564 308.34244,506.62346 279.80471,478.08247 C 262.30676,460.58252 262.24951,431.4682 279.67891,414.10302 C 291.38832,402.43673 306.83519,398.1174 323.11867,401.95615 C 326.6018,402.77728 329.81045,403.22735 330.249,402.95631 C 331.23755,402.34535 351.28571,370.94063 351.28571,370.00306 C 351.28571,368.73284 340.01107,364.33107 331.38254,362.23259 C 325.3587,360.76758 319.49346,360.13736 311.78571,360.1269 C 274.71038,360.07662 242.28825,383.55954 230.239,419.1901 C 227.33551,427.77596 226.89093,430.51541 226.49719,442.2468 C 226.22171,450.45466 226.51261,457.90958 227.25578,461.68704 C 233.24942,492.15211 255.26543,517.4265 284.62423,527.54605 C 299.76503,532.76486 317.12027,533.43296 332.92395,529.40539 z M 320.30883,455.42693 C 329.37111,448.82325 336.92531,442.77887 337.09593,441.99497 C 337.43353,440.44392 310.92603,420.21172 308.3268,420.03656 C 306.81085,419.9344 306.49498,421.99693 301.87216,462.18362 C 301.42158,466.10062 301.59371,467.43362 302.55009,467.43362 C 303.25511,467.43362 311.24654,462.03061 320.30883,455.42693 z M 151.78571,213.43362 C 143.84263,201.33362 136.88745,191.43362 136.32975,191.43362 C 135.77206,191.43362 133.04944,192.8281 130.2795,194.53246 C 127.50956,196.23682 124.58038,197.37693 123.7702,197.06604 C 122.96003,196.75515 121.40179,195.02846 120.30745,193.22897 C 117.7702,189.05679 117.13686,189.66362 138.28571,176.00322 L 154.78571,165.3456 L 157.53571,168.60183 C 159.04821,170.39276 160.28571,172.60195 160.28571,173.51114 C 160.28571,174.42033 157.92321,176.70152 155.03571,178.58045 C 152.14821,180.45938 149.83346,182.68149 149.89182,183.51847 C 149.95018,184.35545 156.13768,194.50214 163.64182,206.06667 C 171.14596,217.63119 177.28491,227.7322 177.28393,228.51335 C 177.28208,229.97742 169.49067,235.43362 167.40184,235.43362 C 166.75605,235.43362 159.72879,225.53362 151.78571,213.43362 z M 194.55152,217.18362 C 193.23342,215.5008 167.28571,161.32439 167.28571,160.25515 C 167.28571,159.79135 169.76252,158.19715 172.78972,156.71247 C 177.59059,154.3579 178.46823,154.1996 179.65972,155.47333 C 182.10339,158.08565 207.51503,212.25356 206.82253,213.37405 C 205.96098,214.76806 198.80707,218.43362 196.94799,218.43362 C 196.16843,218.43362 195.09001,217.87112 194.55152,217.18362 z M 215.59969,206.80945 C 212.54044,198.83718 196.68783,147.6947 197.00216,146.81152 C 197.5615,145.23993 219.73135,138.21329 225.78571,137.6887 C 232.61913,137.09661 236.79346,139.94798 240.784,147.93362 C 243.11515,152.59856 243.78233,155.26868 243.78245,159.93362 C 243.78269,169.29701 239.16989,174.23354 227.47859,177.38168 C 225.11586,178.0179 222.91076,179.24714 222.57838,180.11332 C 222.24599,180.97951 223.01425,184.89342 224.28563,188.81091 C 225.557,192.7284 227.18914,197.87451 227.91261,200.2467 L 229.22802,204.55978 L 225.7037,206.03233 C 219.39415,208.66863 216.40145,208.89881 215.59969,206.80945 z M 227.44577,165.71842 C 230.19268,163.3489 230.50891,159.72662 228.38754,154.93091 C 226.98858,151.76832 225.67235,150.31778 223.76785,149.83978 C 220.49024,149.01715 213.28571,151.04643 213.28571,152.79226 C 213.28571,155.06303 216.41409,164.86771 217.86197,167.13473 C 219.11512,169.09686 219.62158,169.2172 222.52673,168.24312 C 224.31917,167.64213 226.53274,166.50601 227.44577,165.71842 z"
         id="path2572" />
      <path
         style="fill:#4e4e4e"
         d="M 291.61438,668.41413 C 262.29567,665.56361 238.55928,658.66382 212.18657,645.32575 C 122.30518,599.86797 74.294726,502.70464 92.909629,403.93362 C 101.15658,360.17513 122.9986,319.34775 155.26328,287.38135 C 182.85341,260.04627 217.99438,239.95099 254.87756,230.41713 C 309.06274,216.41092 362.57802,222.06637 412.69558,247.09522 C 423.20229,252.34231 425.83355,253.29963 426.83082,252.23803 C 429.13052,249.78999 452.28568,212.47526 452.29493,211.20242 C 452.3,210.50458 449.99922,200.89598 447.18208,189.84998 L 442.06003,169.76633 L 461.6145,131.86943 C 472.36946,111.02613 481.58126,93.835101 482.08516,93.667133 C 482.58907,93.499165 487.90283,104.74041 493.89353,118.64768 L 504.78571,143.93362 L 533.60606,144.19907 C 558.31175,144.42662 562.38067,144.6738 562.10606,145.93038 C 561.78472,147.40078 504.99838,216.87513 503.21896,217.97488 C 502.69772,218.29702 493.61201,219.2107 483.02849,220.00529 C 472.44496,220.79988 462.88571,221.66144 461.78571,221.91988 C 460.50111,222.22169 455.54467,229.09017 447.92924,241.12174 L 436.07278,259.85371 L 438.53309,261.89367 C 439.88626,263.01564 445.67167,267.61674 451.38955,272.11833 C 477.39481,292.59179 497.53735,317.57884 512.31264,347.6941 C 554.31974,433.31373 537.18532,536.48434 469.76087,603.90878 C 435.97561,637.69405 391.25803,660.12941 344.0893,666.95975 C 331.18167,668.82886 303.71099,669.59023 291.61438,668.41413 z M 346.78571,617.47218 C 409.83389,603.8947 459.14393,559.54617 478.58582,498.93362 C 484.72515,479.79347 485.78639,471.90184 485.78033,445.43362 C 485.77557,424.69072 485.50485,420.67541 483.47281,411.20932 C 475.85116,375.70445 457.77173,343.11465 432.43987,319.21786 C 423.61662,310.89445 412.47531,302.42664 410.38658,302.45653 C 408.89945,302.47782 389.28571,332.10516 389.28571,334.33024 C 389.28571,334.84218 392.86753,338.24854 397.24531,341.89992 C 421.15424,361.8417 437.15362,388.15985 443.7718,418.43362 C 446.0112,428.67736 446.8626,453.01925 445.35042,463.56678 C 439.70386,502.95169 418.84472,536.3072 386.32166,557.95868 C 371.24755,567.99392 356.89583,573.99402 338.23313,578.0633 C 326.18139,580.69111 297.06881,580.69689 285.78571,578.07373 C 267.44168,573.80899 252.538,567.78812 239.28571,559.2884 C 202.46373,535.67162 179.70695,496.04292 177.63723,451.93362 C 176.25446,422.46446 184.39648,394.17191 201.40733,369.33541 C 221.95454,339.33567 255.55266,318.4669 292.28571,312.88819 C 318.07072,308.97218 345.37782,313.09438 370.46794,324.69035 C 377.52874,327.95365 378.26325,328.1071 379.54805,326.58724 C 382.38281,323.23385 398.56752,297.04988 398.67477,295.64362 C 398.91668,292.47182 374.78377,281.62269 357.19295,276.99516 C 340.10643,272.5003 326.82811,271.13177 306.28571,271.74843 C 277.66818,272.60748 259.29548,277.14385 234.44285,289.48698 C 219.39322,296.96143 209.28398,303.64632 196.7207,314.43135 C 168.86829,338.34143 148.42678,373.67751 140.30109,411.96078 C 137.55185,424.91349 136.52942,451.77348 138.2296,466.38067 C 147.25228,543.89985 207.29716,606.32998 284.94413,618.92336 C 298.53284,621.12728 333.63827,620.3035 346.78571,617.47218 z M 325.28571,531.39299 C 360.43954,525.84665 389.26044,498.46644 396.4431,463.79258 C 398.83727,452.23491 398.5538,435.30415 395.78413,424.43362 C 391.88616,409.13473 379.97505,390.09731 368.39646,380.66018 C 363.19637,376.42185 362.946,376.33201 361.26327,378.10065 C 358.42337,381.08551 341.28571,408.67916 341.28571,410.26686 C 341.28571,411.0695 343.34151,413.92403 345.85415,416.61024 C 354.57943,425.93827 358.69795,440.32354 356.37107,453.34397 C 352.89497,472.79503 338.16929,487.28699 318.59606,490.51944 C 289.52278,495.32079 262.72858,468.60262 267.34786,439.41665 C 271.22058,414.94757 294.96899,397.27825 318.32791,401.4864 C 332.22123,403.9893 329.4753,405.69593 341.15535,387.29885 C 348.9972,374.94725 351.26992,370.62966 350.54163,369.46732 C 349.05958,367.10197 336.392,362.62658 326.07833,360.82455 C 278.28211,352.47348 232.68271,386.43735 226.19038,435.22422 C 218.68851,491.59741 268.86732,540.2943 325.28571,531.39299 z M 320.49645,455.85197 C 330.00554,448.93206 337.91901,442.69537 338.08194,441.99264 C 338.44884,440.41021 308.24046,418.06743 307.19855,419.15061 C 306.51674,419.85943 301.28571,461.69921 301.28571,466.44378 C 301.28571,467.53819 301.71804,468.43362 302.24645,468.43362 C 302.77485,468.43362 310.98735,462.77188 320.49645,455.85197 z M 152.25807,213.42583 C 144.37079,201.26989 137.52141,191.07929 137.03723,190.78005 C 136.55306,190.48081 133.66932,191.88764 130.62894,193.90634 C 127.58856,195.92504 124.56645,197.37159 123.91314,197.12089 C 121.92993,196.35986 118.63839,189.45789 119.87137,188.64578 C 139.17693,175.93006 154.13992,166.43636 154.86036,166.446 C 155.71061,166.45737 160.28571,172.7511 160.28571,173.90938 C 160.28571,174.18647 157.81071,176.05649 154.78571,178.06498 C 151.76071,180.07347 149.28571,182.41333 149.28571,183.26467 C 149.28571,184.11602 155.33194,194.06481 162.72178,205.3731 C 170.11161,216.68138 176.44862,226.69211 176.80403,227.61915 C 177.27849,228.85676 176.34515,230.00228 173.29185,231.92974 C 171.00475,233.37353 168.56314,234.77367 167.86604,235.04117 C 167.07506,235.3447 161.20752,227.21879 152.25807,213.42583 z M 190.84308,209.18362 C 188.46343,204.09612 182.41453,191.43515 177.40108,181.04813 C 172.38763,170.66112 168.28571,161.55776 168.28571,160.81846 C 168.28571,159.29952 175.26422,155.43189 177.99588,155.43689 C 179.35315,155.43938 182.98963,162.14592 193.04276,183.18689 C 200.33413,198.4476 206.29663,211.63145 206.29276,212.48435 C 206.28629,213.90649 198.60689,218.43362 196.20096,218.43362 C 195.63378,218.43362 193.22273,214.27112 190.84308,209.18362 z M 216.55125,207.2062 C 215.50431,205.89592 197.28571,149.4022 197.28571,147.46602 C 197.28571,146.15386 199.47364,145.29605 214.28571,140.8009 C 227.1395,136.90004 230.36411,136.94581 235.30012,141.0992 C 241.31667,146.16179 244.92729,157.06819 243.04357,164.48943 C 241.70698,169.75519 237.03107,173.68974 228.89007,176.39889 C 225.26962,177.6037 222.05799,178.99306 221.75312,179.48635 C 221.44824,179.97965 222.79335,185.41891 224.74225,191.57359 C 226.69115,197.72827 228.28571,203.16256 228.28571,203.64979 C 228.28571,204.48926 224.29679,206.42914 219.67689,207.83641 C 218.44757,208.21087 217.144,207.94804 216.55125,207.2062 z M 223.38649,168.32102 C 230.17969,166.09755 232.21371,160.10787 228.33548,153.74744 C 225.56579,149.20505 223.11431,148.13341 218.39802,149.40337 C 212.3015,151.045 211.94851,152.09192 214.73212,160.27605 C 218.23308,170.56932 217.78631,170.154 223.38649,168.32102 z"
         id="path2570" />
      <path
         style="fill:#2e2e2e"
         d="M 282.78571,666.88128 C 235.98606,660.58083 192.018,639.26201 157.73906,606.24981 C 138.31273,587.54138 124.07638,568.02823 112.27456,543.93362 C 96.495898,511.7199 89.896018,482.81773 89.896018,445.93362 C 89.896018,424.25566 91.369926,411.22892 95.949265,392.43362 C 111.33041,329.30373 155.10494,275.05092 213.78571,246.39073 C 277.34574,215.34746 350.22416,215.92915 413.54879,247.98516 C 419.46849,250.98181 424.90537,253.43362 425.63075,253.43362 C 426.35612,253.43362 429.43748,249.49612 432.47821,244.68362 C 435.51893,239.87112 441.46909,230.47569 445.70077,223.8049 L 453.39474,211.67617 L 448.34022,192.24014 C 445.56024,181.55032 443.28571,171.80916 443.28571,170.5931 C 443.28571,168.21729 480.58636,95.166735 482.04831,94.679418 C 482.53043,94.518709 487.57885,105.31016 493.26702,118.66042 C 498.95518,132.01068 504.0358,143.4893 504.55729,144.16846 C 505.26147,145.08557 512.81405,145.47153 533.90912,145.66846 L 562.31279,145.93362 L 535.2139,178.93362 C 520.30951,197.08362 506.77804,213.33122 505.14398,215.0394 L 502.17294,218.14518 L 482.10372,219.44541 C 464.16349,220.60771 461.7925,220.96778 459.75336,222.83963 C 456.93407,225.42762 436.28571,257.98343 436.28571,259.84054 C 436.28571,260.58158 439.33601,263.41345 443.06415,266.1336 C 453.65413,273.8603 470.17082,288.48391 476.99956,296.17945 C 527.84326,353.47698 546.33479,429.2053 527.38472,502.52171 C 519.35802,533.57641 503.96956,563.29035 482.42494,589.33563 C 446.97117,632.19565 393.05157,661.1381 337.07512,667.35511 C 324.07569,668.7989 295.15478,668.54647 282.78571,666.88128 z M 334.28571,619.99571 C 401.72951,611.01051 457.59613,564.68954 478.70376,500.25367 C 485.13831,480.61072 486.75975,469.67769 486.75975,445.93362 C 486.75975,428.04116 486.42187,423.25647 484.4765,413.59983 C 475.6216,369.6451 452.00219,331.93457 416.57247,305.18487 C 412.36062,302.00489 410.74028,301.2879 409.51389,302.06149 C 407.99608,303.0189 388.30064,333.21261 388.29055,334.59752 C 388.28789,334.96266 391.15193,337.54213 394.65508,340.32967 C 403.85679,347.6517 417.32805,362.15905 423.27899,371.15509 C 438.39686,394.00878 445.60262,418.14626 445.60262,445.93362 C 445.60262,481.86529 433.45515,512.49041 409.09625,537.97027 C 385.05832,563.11438 356.81105,576.60526 322.28571,579.43092 C 260.99347,584.44727 204.19446,546.71066 184.81015,488.09375 C 180.24077,474.27624 178.28571,461.64288 178.28571,445.93362 C 178.28571,409.10304 191.42831,377.21172 217.24606,351.39397 C 237.2169,331.42313 261.72722,318.65585 289.28571,313.86894 C 303.67223,311.37001 330.18718,312.31666 344.08231,315.82533 C 354.07266,318.34801 369.49504,324.11343 374.00053,327.00981 C 375.21868,327.79291 376.87051,328.43362 377.67126,328.43362 C 379.32273,328.43362 399.28571,297.66936 399.28571,295.12434 C 399.28571,294.01425 395.90998,291.83589 389.03571,288.51002 C 375.49926,281.96088 360.73906,276.96513 345.34407,273.72211 C 334.24121,271.38325 330.46774,271.07114 312.78571,271.02918 C 290.18771,270.97555 280.65643,272.28231 261.28571,278.08995 C 249.82977,281.52461 229.29374,290.72823 219.78571,296.68899 C 200.62317,308.70232 179.82372,328.57466 167.60562,346.54319 C 130.40095,401.25818 126.23105,467.69941 156.31997,526.36321 C 180.942,574.36833 226.69248,608.43635 279.83131,618.33573 C 285.85623,619.45813 292.36071,620.5423 294.28571,620.745 C 303.08078,621.67111 324.758,621.26504 334.28571,619.99571 z M 333.14223,530.37536 C 343.39762,527.79665 357.55477,520.68246 366.30631,513.70989 C 380.27406,502.58144 391.5837,485.00917 396.41185,466.93362 C 399.43272,455.62416 399.42785,436.20871 396.40132,424.93362 C 392.23977,409.43012 383.78281,394.80627 372.61507,383.80225 C 365.71979,377.00805 362.78081,375.46097 360.79629,377.58084 C 360.09976,378.32487 355.1393,385.87468 349.77303,394.3582 C 343.33488,404.53628 340.31713,410.18644 340.90095,410.96952 C 341.38757,411.62223 343.92863,414.80616 346.54775,418.04494 C 353.8752,427.10598 355.72881,432.73657 355.72881,445.93362 C 355.72881,454.96619 355.33274,457.91733 353.51438,462.43362 C 349.05285,473.51478 339.31913,483.2406 328.28571,487.6418 C 323.83217,489.41831 320.69278,489.84505 311.78571,489.88468 C 301.1646,489.93193 300.52512,489.80917 293.22026,486.32055 C 264.56783,472.63688 258.46274,435.78446 281.24787,414.05112 C 292.96384,402.87598 308.15554,398.90449 323.69956,402.9532 C 327.9365,404.05678 329.89163,404.17564 330.84142,403.38739 C 333.54897,401.14031 352.39381,370.41755 351.72668,369.33811 C 350.56227,367.45406 340.48034,363.44436 331.38254,361.24701 C 309.54199,355.97197 283.4966,360.55782 264.79513,372.97115 C 247.89065,384.1917 235.96116,399.72987 229.10736,419.45449 C 225.88195,428.73693 225.81372,429.28637 225.81909,445.93362 C 225.82448,462.6043 225.88942,463.1219 229.17122,472.65281 C 237.20491,495.98402 254.05255,514.9947 275.44543,524.86806 C 293.54882,533.22324 314.03836,535.17902 333.14223,530.37536 z M 319.83251,456.87564 C 337.80856,443.85212 339.51314,442.38677 338.50279,440.82562 C 337.27807,438.93324 309.01674,418.43362 307.63257,418.43362 C 306.91276,418.43362 306.09696,419.44612 305.81969,420.68362 C 304.83172,425.09315 300.48758,466.94728 300.94145,467.68362 C 301.99708,469.39621 304.62925,467.89029 319.83251,456.87564 z M 152.19536,212.43362 C 144.20321,200.11765 137.26793,190.43362 136.4399,190.43362 C 135.6264,190.43362 132.78271,191.8313 130.12059,193.53958 C 127.45846,195.24786 124.71907,196.42304 124.03304,196.15109 C 123.34701,195.87914 121.98568,194.2783 121.00786,192.59367 L 119.23,189.53072 L 124.50786,186.13591 C 127.41068,184.26876 135.07751,179.29692 141.54525,175.08736 C 148.013,170.8778 153.87848,167.43362 154.57965,167.43362 C 155.70713,167.43362 159.28571,172.2958 159.28571,173.8277 C 159.28571,174.14972 156.81071,176.05649 153.78571,178.06498 C 150.76071,180.07347 148.28571,182.26866 148.28571,182.94319 C 148.28571,183.61771 154.42801,193.5665 161.93527,205.05161 C 169.44252,216.53672 175.78348,226.67706 176.0263,227.58571 C 176.46923,229.24327 170.11786,234.43362 167.64658,234.43362 C 167.00041,234.43362 160.04736,224.53362 152.19536,212.43362 z M 191.83849,210.18362 C 190.0051,206.19612 183.95394,193.53185 178.39147,182.04079 C 171.2801,167.34997 168.5742,160.79094 169.27605,159.94526 C 170.95392,157.92355 178.27875,155.01912 179.18345,156.01679 C 180.22199,157.16205 206.30702,211.66434 206.29471,212.6633 C 206.28242,213.66016 198.74704,217.43362 196.76866,217.43362 C 195.7597,217.43362 193.94485,214.76483 191.83849,210.18362 z M 207.08888,177.68362 C 201.79743,161.1956 197.91508,147.52516 198.37977,147.01735 C 199.88198,145.37576 222.6772,138.5278 226.78571,138.48387 C 232.6394,138.42127 236.58604,141.3042 239.88923,148.05567 C 243.13292,154.68554 243.75657,163.30361 241.32238,167.86015 C 239.61842,171.04979 233.9692,174.50392 226.53571,176.90122 C 222.57747,178.17776 221.28571,179.07387 221.28571,180.54322 C 221.28571,181.6151 222.80951,187.19133 224.67194,192.93483 C 227.12388,200.4963 227.74468,203.62118 226.92194,204.2605 C 225.56858,205.31216 219.47783,207.43362 217.81186,207.43362 C 217.1516,207.43362 212.45196,194.39487 207.08888,177.68362 z M 227.7994,166.42076 C 229.0738,165.22352 230.39266,163.14362 230.7302,161.79877 C 231.58462,158.3945 228.0152,150.72312 224.92078,149.31321 C 222.11374,148.03423 216.5559,148.78435 213.7755,150.81742 C 211.97378,152.13487 211.98749,152.41314 214.23058,160.0547 C 215.50259,164.38811 216.76871,168.32254 217.04417,168.7979 C 217.92806,170.32321 225.40434,168.67079 227.7994,166.42076 z"
         id="path2568" />
      <path
         style="fill:#000000"
         d="M 294.28571,667.39828 C 241.39797,662.40598 195.63538,641.63574 158.05927,605.56929 C 126.41401,575.19541 103.33898,533.46922 94.851077,491.27097 C 87.772153,456.07758 89.018985,419.31555 98.423731,385.93362 C 115.5757,325.05309 157.46515,274.90455 214.58671,246.86748 C 245.90062,231.49762 276.78033,224.43362 312.65455,224.43362 C 347.72761,224.43362 379.53285,232.0115 411.65206,248.02065 C 418.72855,251.54779 425.10399,254.43362 425.8197,254.43362 C 427.86471,254.43362 453.28907,213.8883 453.26732,210.66171 C 453.25721,209.16126 451.01897,199.40845 448.29346,188.98881 L 443.33799,170.04399 L 462.55172,132.77868 C 473.11927,112.28275 482.07735,95.832919 482.45855,96.223489 C 482.83975,96.61406 487.67522,107.47953 493.20405,120.36899 C 498.73287,133.25845 503.73581,144.28345 504.32168,144.86899 C 505.0401,145.58702 514.12017,145.81797 532.21225,145.57839 C 549.4437,145.3502 559.25912,145.58157 559.65698,146.22532 C 560.20208,147.10732 511.34557,207.64001 504.44688,214.63002 C 501.85145,217.25982 501.27945,217.36534 481.29209,218.90142 C 464.61812,220.18287 460.47893,220.7986 459.08406,222.20502 C 456.4393,224.87168 435.28571,258.41476 435.28571,259.94187 C 435.28571,260.68514 439.44821,264.44429 444.53571,268.29554 C 474.81388,291.2162 495.26028,315.9066 511.31299,348.93362 C 519.36324,365.49628 522.29833,373.4611 526.79027,390.93362 C 533.10653,415.5023 535.32267,439.75442 533.32388,462.43362 C 526.25498,542.64038 480.36345,610.46447 409.78571,645.01334 C 393.79844,652.83935 383.62622,656.6065 366.77543,660.94161 C 343.88513,666.83047 315.27077,669.37916 294.28571,667.39828 z M 327.78571,621.39319 C 407.18654,613.89517 471.24117,555.07826 485.46059,476.61132 C 488.48016,459.94843 488.46041,431.81569 485.41734,415.00293 C 477.48713,371.18917 453.44791,332.2931 417.40257,304.95333 C 412.41443,301.16991 410.66606,300.33305 409.40257,301.12412 C 407.07283,302.58274 388.28571,332.19001 388.28571,334.4029 C 388.28571,335.48678 390.90729,338.34746 394.57542,341.26629 C 418.72427,360.48211 435.59032,387.67255 442.4418,418.43362 C 445.80242,433.52175 445.80645,458.34552 442.45072,473.3524 C 436.27224,500.98271 423.64288,523.3985 403.40137,542.66092 C 384.6867,560.47035 362.34605,571.97266 336.46793,577.12224 C 324.33351,579.53692 298.81051,579.52688 287.41096,577.10295 C 259.07369,571.07747 237.1335,559.39126 217.73078,539.98855 C 198.72006,520.97782 186.83963,498.95764 181.13954,472.16729 C 178.05815,457.68474 178.05815,434.1825 181.13954,419.69995 C 186.69883,393.57136 198.50331,371.43194 216.78571,352.84522 C 235.65247,333.66441 256.74243,321.93241 283.53836,315.7118 C 293.14092,313.48259 297.19864,313.09057 311.28571,313.03111 C 333.45602,312.93753 349.2777,316.36466 369.22904,325.58221 C 373.8834,327.73253 378.1977,329.29763 378.81638,329.06022 C 380.73829,328.32272 400.45402,296.54608 400.10716,294.745 C 399.91115,293.72722 395.65154,290.97731 389.52002,287.91018 C 348.69612,267.48914 298.65704,264.34817 254.84161,279.45637 C 217.79354,292.23109 185.40597,317.54898 164.04494,350.43362 C 145.37915,379.16901 136.28571,410.45314 136.28571,445.93362 C 136.28571,466.80732 138.57979,482.1396 144.38493,500.06404 C 169.74812,578.37759 246.38922,629.07967 327.78571,621.39319 z M 337.28571,529.92757 C 366.24852,520.63523 386.11551,500.80164 395.87816,471.43362 C 398.53482,463.44182 398.70376,461.91722 398.70376,445.93362 C 398.70376,429.95002 398.53482,428.42542 395.87816,420.43362 C 391.47275,407.18128 386.79076,398.77771 377.84748,388.07091 C 373.18746,382.49198 364.68672,375.43362 362.62774,375.43362 C 361.36952,375.43362 353.15224,387.36837 342.86268,404.14033 L 339.05488,410.34704 L 343.71196,415.64033 C 353.12634,426.34082 357.47041,440.14497 355.3173,452.51863 C 352.81892,466.87653 343.72381,479.13987 330.88745,485.45852 C 324.88843,488.4115 322.77832,488.90711 314.70041,489.26041 C 303.03733,489.77052 293.96726,487.2976 286.25955,481.50614 C 273.41256,471.8531 267.62183,459.3038 268.47897,442.9732 C 268.85461,435.81625 269.46701,433.45138 272.57117,427.17053 C 277.12245,417.96166 284.7091,410.53429 294.00988,406.18192 C 302.47768,402.21936 314.68125,401.24386 323.54603,403.82092 C 326.60611,404.71051 329.71188,405.20254 330.44776,404.91432 C 332.65492,404.04983 351.74246,373.18334 351.76504,370.44209 C 351.79013,367.39767 346.9043,364.75361 334.78571,361.2534 C 324.2444,358.20875 300.56647,357.97821 290.28807,360.82015 C 249.08284,372.21322 222.07178,409.42598 224.5878,451.33448 C 225.9419,473.88924 234.94821,493.15365 251.62266,509.16179 C 260.66817,517.84584 270.10362,523.96634 280.40953,527.83499 C 292.46459,532.36023 299.57636,533.43468 314.78571,533.02854 C 326.62583,532.71236 330.09707,532.23396 337.28571,529.92757 z M 321.34327,456.77464 C 330.93661,449.81221 339.0941,443.64524 339.47103,443.07028 C 340.68272,441.22197 338.97223,439.62593 323.78138,428.43043 C 309.16466,417.65805 307.00929,416.45382 305.81219,418.39078 C 305.08892,419.56105 300.32384,460.45609 300.30164,465.68362 C 300.28908,468.63975 300.66837,469.43362 302.09327,469.43362 C 303.08743,469.43362 311.74993,463.73708 321.34327,456.77464 z M 152.42141,211.43362 C 144.544,199.33362 137.44427,189.43362 136.64424,189.43362 C 135.84421,189.43362 132.72905,191.00764 129.72166,192.93145 L 124.25367,196.42927 L 122.29411,193.20703 C 121.21635,191.4348 120.66106,189.69627 121.06013,189.34363 C 121.4592,188.991 129.19299,183.89605 138.24633,178.02154 L 154.70694,167.34059 L 156.47409,169.6371 C 159.1798,173.15333 158.7276,174.17579 152.78571,177.97677 C 149.76071,179.91184 147.286,182.04375 147.28635,182.71435 C 147.2867,183.38495 153.5821,193.60862 161.27612,205.43362 C 168.97014,217.25862 175.26986,227.45942 175.27548,228.10206 C 175.28576,229.27547 169.33606,233.43362 167.64681,233.43362 C 167.15026,233.43362 160.29883,223.53362 152.42141,211.43362 z M 182.7592,189.29694 C 175.62378,174.37177 169.63926,161.78242 169.46027,161.3206 C 169.10977,160.4163 177.96917,155.76607 178.65374,156.49501 C 179.32589,157.21073 205.28571,211.72906 205.28571,212.42493 C 205.28571,213.22925 198.6427,216.43362 196.97527,216.43362 C 196.29185,216.43362 189.89462,204.22212 182.7592,189.29694 z M 216.63922,204.91248 C 213.32554,196.27717 198.55049,147.78145 199.08305,147.28839 C 200.83335,145.66793 222.6935,139.43731 226.51722,139.46905 C 233.67042,139.52844 237.71115,143.0279 240.66137,151.71856 C 245.0239,164.56958 240.7928,171.71812 226.27156,176.03046 C 223.47192,176.86186 220.90967,178.24997 220.57767,179.11515 C 220.24567,179.98033 221.01425,183.89342 222.28563,187.81091 C 223.557,191.7284 225.18914,196.87451 225.91261,199.2467 L 227.22802,203.55978 L 223.78898,204.9967 C 219.38132,206.83834 217.36915,206.81464 216.63922,204.91248 z M 224.96534,168.92301 C 226.95381,168.09217 229.17505,166.62967 229.90142,165.67301 C 232.0318,162.86722 231.5811,156.16771 229.00477,152.3447 C 226.09921,148.03313 222.9411,146.90252 217.78452,148.32781 C 210.78698,150.26195 210.68333,150.44638 212.63972,157.48313 C 216.41182,171.05062 217.48635,172.04793 224.96534,168.92301 z"
         id="path2566" />
    </g>
  </g>
</svg>
